<svg xmlns="http://www.w3.org/2000/svg" width="85.4" height="394.2" preserveAspectRatio="none"><defs><filter id="b" color-interpolation-filters="sRGB"><feGaussianBlur stdDeviation="23.3"/></filter><clipPath id="a"><path opacity=".5" fill="#78756e" stroke="#e0dacf" stroke-width="10" stroke-linecap="round" stroke-linejoin="round" d="M2026.7 6149.3H5988v784H2026.8z"/></clipPath></defs><g transform="matrix(0 .125 .125 0 -765.801 -265.352)" clip-path="url(#a)" filter="url(#b)"><path d="M3210 6754c-300-16-553-40-672-64-235-48-376-175-409-366-16-92-14-5095 2-5224 12-104 43-173 105-240 128-137 321-183 870-210 126-6 320-16 430-22 111-6 255-8 320-5 66 4 214 11 329 17 246 12 514 35 634 56 289 49 427 173 451 406 13 130 14 5144 1 5221-34 194-176 323-411 371-117 23-339 45-645 61-331 18-667 17-1005-1zm1910-3049V1340H2280v4730h2840V3705z"/></g><path d="M80.2 199c0-21-.6-42-1.7-63-2-37.6-5-69.2-8-84-6-29.5-22-47-45.8-51.2C23.5.6 14.4.4.2.2V394c13.4-.2 23.4-.3 24.4-.5 24.2-4.2 40.4-22 46.4-51.3 2.8-14.7 5.6-42.4 7.6-80.7 1-20.7 1.6-41.5 1.6-62.5z" stroke="#222" stroke-width=".4" stroke-linejoin="round"/><path d="M33.6 67.8c-5.2 0-9.4-4.2-9.4-9.3 0-5.2 4.2-9.4 9.4-9.4s9.4 4.3 9.4 9.5c0 5-4.2 9.3-9.4 9.3zM40 163.2V231H28V163z" fill="#2e2e2e"/></svg>