<?xml version="1.0" encoding="UTF-8" standalone="no"?>
<!-- Created with Inkscape (http://www.inkscape.org/) -->

<svg
   xmlns:dc="http://purl.org/dc/elements/1.1/"
   xmlns:cc="http://creativecommons.org/ns#"
   xmlns:rdf="http://www.w3.org/1999/02/22-rdf-syntax-ns#"
   xmlns:svg="http://www.w3.org/2000/svg"
   xmlns="http://www.w3.org/2000/svg"
   xmlns:sodipodi="http://sodipodi.sourceforge.net/DTD/sodipodi-0.dtd"
   xmlns:inkscape="http://www.inkscape.org/namespaces/inkscape"
   width="395.28891"
   height="768.29858"
   id="svg2"
   version="1.1"
   inkscape:version="0.48.4 r9939"
   sodipodi:docname="phone.svg"
  preserveAspectRatio="none"
  >
  <defs
     id="defs4">
    <filter
       inkscape:collect="always"
       id="filter3805"
       color-interpolation-filters="sRGB">
      <feGaussianBlur
         inkscape:collect="always"
         stdDeviation="0.62784663"
         id="feGaussianBlur3807" />
    </filter>
  </defs>
  <sodipodi:namedview
     id="base"
     pagecolor="#ffffff"
     bordercolor="#666666"
     borderopacity="1.0"
     inkscape:pageopacity="0.0"
     inkscape:pageshadow="2"
     inkscape:zoom="1.1527264"
     inkscape:cx="104.59597"
     inkscape:cy="348.13665"
     inkscape:document-units="px"
     inkscape:current-layer="layer1"
     showgrid="false"
     inkscape:window-width="1918"
     inkscape:window-height="1180"
     inkscape:window-x="1920"
     inkscape:window-y="18"
     inkscape:window-maximized="0"
     fit-margin-top="0"
     fit-margin-left="0"
     fit-margin-right="0"
     fit-margin-bottom="0" />
  <metadata
     id="metadata7">
    <rdf:RDF>
      <cc:Work
         rdf:about="">
        <dc:format>image/svg+xml</dc:format>
        <dc:type
           rdf:resource="http://purl.org/dc/dcmitype/StillImage" />
        <dc:title></dc:title>
      </cc:Work>
    </rdf:RDF>
  </metadata>
  <g
     inkscape:label="Layer 1"
     inkscape:groupmode="layer"
     id="layer1"
     transform="translate(-29.498416,-11.070039)">
    <g
       id="g2989"
       transform="matrix(0.125,0,0,-0.125,-235.24574,857.07134)"
       style="fill:#000000;stroke:none">
      <path
         id="path2991"
         d="m 3210,6754 c -300,-16 -553,-40 -672,-64 -235,-48 -376,-175 -409,-366 -16,-92 -14,-5095 2,-5224 12,-104 43,-173 105,-240 128,-137 321,-183 870,-210 126,-6 320,-16 430,-22 111,-6 255,-8 320,-5 66,4 214,11 329,17 246,12 514,35 634,56 289,49 427,173 451,406 13,130 14,5144 1,5221 -34,194 -176,323 -411,371 -117,23 -339,45 -645,61 -331,18 -667,17 -1005,-1 z m 1910,-3049 0,-2365 -1420,0 -1420,0 0,2365 0,2365 1420,0 1420,0 0,-2365 z"
         inkscape:connector-curvature="0" />
    </g>
    <path
       sodipodi:type="arc"
       style="opacity:0.98999999;fill:#222222;fill-opacity:1;stroke:none"
       id="path3771"
       sodipodi:cx="55.558392"
       sodipodi:cy="-63.85638"
       sodipodi:rx="23.233509"
       sodipodi:ry="23.233509"
       d="m 78.791901,-63.85638 c 0,12.831512 -10.401997,23.233509 -23.233509,23.233509 -12.831513,0 -23.233509,-10.401997 -23.233509,-23.233509 0,-12.831513 10.401996,-23.23351 23.233509,-23.23351 12.831512,0 23.233509,10.401997 23.233509,23.23351 z"
       transform="matrix(0.40258114,0,0,0.40258114,78.185933,83.396532)" />
    <rect
       style="opacity:0.98999999;fill:#222222;fill-opacity:1;stroke:none"
       id="rect3773"
       width="67.665665"
       height="12.14512"
       x="191.64682"
       y="51.257343" />
    <path
       sodipodi:type="arc"
       style="opacity:0.98999999;fill:none;stroke:#121212;stroke-width:6.3528738;stroke-linejoin:round;stroke-miterlimit:4;stroke-opacity:1;stroke-dasharray:none;filter:url(#filter3805)"
       id="path3775"
       sodipodi:cx="-151.38023"
       sodipodi:cy="220.85526"
       sodipodi:rx="40.339146"
       sodipodi:ry="40.339146"
       d="m -111.04109,220.85526 a 40.339146,40.339146 0 1 1 -80.67829,0 40.339146,40.339146 0 1 1 80.67829,0 z"
       transform="matrix(0.47222723,0,0,0.47222723,299.32753,628.82517)" />
  </g>
</svg>
