<svg xmlns="http://www.w3.org/2000/svg" width="1859.7" height="314.8" preserveAspectRatio="none"><defs><clipPath id="a"><path d="M993 1560.3c-.8 10.7 5.6 17 48.3 16.3H1280v-22.8z" fill="url(#linearGradient4173)"/></clipPath><clipPath id="b"><path d="M-1567 1560.3c-.8 10.7 5.6 17 48.3 16.3h238.7v-22.8z" fill="url(#linearGradient4179)"/></clipPath><clipPath id="c"><path d="M1280 1269.3l-189.2 6c1.5 55.3-4 117.7-11.6 174.3-1.6 12-3.2 25-6 37.8-3.6 14.6-9.5 23.8-17.8 30.6-7 5.7-16 9.4-24.4 14-12.3 6.8-22.4 13.6-29.2 19-2.8 2.3-6 5-8.3 8-.3.7-.4 1-.4 1.6 0 1.7 2.5 2.7 4.7 3.5 7 2.4 20 3.2 35.6 3.3h493.5c15.6 0 28.6-1 35.5-3.2 2.2-.7 4.6-1.7 4.6-3.4 0-.5-.2-1-.5-1.5-2.4-3-5.5-5.7-8.3-8-6.8-5.4-17-12.2-29.2-19-8.4-4.6-17.4-8.3-24.4-14-8.3-6.8-14.2-16-17.8-30.6-2.8-12.7-4.4-25.8-6-37.8-7.7-56.6-13-119-11.6-174.4l-189.2-6z" fill-opacity=".8"/></clipPath><filter x="-.3" y="-.3" width="1.7" height="1.6" color-interpolation-filters="sRGB" id="d"><feGaussianBlur stdDeviation="15.7"/></filter><clipPath id="e"><path d="M1175.3 1251.2l189.2 6c-1.5 55.3 4 117.7 11.6 174.3 1.7 12 3.3 25 6 37.8 3.8 14.6 9.6 23.8 18 30.7 7 5.6 16 9.3 24.3 14 12.4 6.8 22.5 13.6 29.2 19 2.8 2.2 6 4.8 8.3 8 .3.6.5 1 .5 1.5 0 1.7-2.5 2.8-4.6 3.5-7 2.3-20 3-35.6 3.2H928.7c-15.6 0-28.6-1-35.6-3.2-2-.7-4.6-1.8-4.6-3.5 0-.4 0-1 .5-1.5 2.2-3.2 5.4-5.8 8.2-8 6.7-5.4 16.8-12.2 29.2-19 8.3-4.7 17.3-8.4 24.3-14 8.3-7 14.2-16 18-30.7 2.7-12.7 4.3-25.8 6-37.8 7.6-56.6 13-119 11.4-174.4l189.3-5.8z" fill-opacity=".8"/></clipPath><filter x="-.3" y="-.3" width="1.7" height="1.6" color-interpolation-filters="sRGB" id="f"><feGaussianBlur stdDeviation="15.7"/></filter><clipPath id="g"><path d="M1280 1275l-149 6c1.3 55.4-3 117.8-9 174.4-1.2 12-2.5 25-4.7 37.8-3 14.6-7.5 23.8-14 30.6-5.5 5.7-12.6 9.4-19.2 14-9.6 7-17.6 13.7-23 19-2 2.3-4.6 5-6.4 8-.3.7-.4 1-.4 1.6 0 1.7 2 2.7 3.7 3.5 5.3 2.2 15.6 3 28 3 6.5.2 14.5 0 22 0H1452c7.3 0 15.3.2 22 0 12.2 0 22.5-.8 28-3 1.6-1 3.6-2 3.6-3.6 0-.5 0-1-.4-1.5-1.8-3.3-4.3-6-6.5-8.2-5.4-5.3-13.4-12-23-19-6.7-4.6-13.8-8.3-19.2-14-6.6-6.8-11.2-16-14-30.6-2.3-12.7-3.6-25.8-4.8-37.8-6-56.6-10.3-119-9-174.4l-149-6z"/></clipPath><filter x="-.1" y="-.9" width="1.2" height="2.8" color-interpolation-filters="sRGB" id="h"><feGaussianBlur stdDeviation="18.4"/></filter><clipPath id="i"><path d="M1280 1269.3l-189.2 6c1.5 55.3-4 117.7-11.6 174.3-1.6 12-3.2 25-6 37.8-3.6 14.6-9.5 23.8-17.8 30.6-7 5.7-16 9.4-24.4 14-12.3 6.8-22.4 13.6-29.2 19-2.8 2.3-6 5-8.3 8-.3.7-.4 1-.4 1.6 0 1.7 2.5 2.7 4.7 3.5 7 2.4 20 3.2 35.6 3.3h493.5c15.6 0 28.6-1 35.5-3.2 2.2-.7 4.6-1.7 4.6-3.4 0-.5-.2-1-.5-1.5-2.4-3-5.5-5.7-8.3-8-6.8-5.4-17-12.2-29.2-19-8.4-4.6-17.4-8.3-24.4-14-8.3-6.8-14.2-16-17.8-30.6-2.8-12.7-4.4-25.8-6-37.8-7.7-56.6-13-119-11.6-174.4l-189.2-6z"/></clipPath><filter x="-.4" y="-1.9" width="1.7" height="4.9" color-interpolation-filters="sRGB" id="j"><feGaussianBlur stdDeviation="74.8"/></filter></defs><path d="M643 305c-1 6.6 5.4 10.6 48 10h239v-14z"/><path clip-path="url(#a)" color="#000" overflow="visible" enable-background="accumulate" d="M993 1544.8h75v38h-75z" transform="matrix(1 0 0 .613 -350.144 -651.385)"/><path d="M1216.8 305c.8 6.6-5.5 10.6-48.2 10H930v-14z"/><path transform="matrix(-1 0 0 .613 -350.144 -651.385)" clip-path="url(#b)" color="#000" overflow="visible" enable-background="accumulate" d="M-1567 1544.8h75v38h-75z"/><path d="M930 126.7l-189.3 3.6c1.5 34-4 72.2-11.6 107-1.5 7.3-3 15.3-6 23-3.6 9-9.4 14.7-17.8 19-7 3.3-16 5.6-24.3 8.5-12.5 4-22.6 8.3-29.3 11.6-2.8 1.4-6 3-8.3 5-.3.3-.5.6-.5.8 0 1 2.4 1.7 4.5 2.2 7 1.4 20 2 35.6 2h493.6c15.6 0 28.6-.6 35.6-2 2-.5 4.6-1 4.6-2.2 0-.2 0-.5-.5-.8-2.3-2-5.5-3.6-8.3-5-6.7-3.3-16.8-7.5-29.2-11.6-8.3-3-17.3-5.2-24.3-8.6-8.4-4.2-14.2-10-18-18.8-2.7-7.8-4.3-15.8-6-23.2-7.6-34.7-13-73-11.5-107l-189-3.5z"/><path d="M993 1498c31.4-4.6 52.6 13.6 77.3 24-36.8 69.4-73.6 79.6-110.4 100.6l9.4-93.7z" clip-path="url(#c)" filter="url(#d)" transform="matrix(1 0 0 .613 -350.144 -651.385)"/><path d="M888.4 1480c31.4-4.6 52.5 13.5 77.3 23.8-37 69.5-73.7 79.7-110.5 100.7l9.6-93.7z" transform="matrix(-1 0 0 .613 2105.194 -640.303)" clip-path="url(#e)" filter="url(#f)"/><rect width="398" height="48" rx="199" ry="24" x="1081" y="1436" transform="matrix(1.271 0 0 .613 -696.861 -654.95)" clip-path="url(#g)" color="#000" overflow="visible" filter="url(#h)" enable-background="accumulate"/><rect width="505.9" height="92.2" rx="252.9" ry="46.1" x="1027.1" y="1403.2" clip-path="url(#i)" color="#000" overflow="visible" filter="url(#j)" enable-background="accumulate" transform="matrix(1 0 0 .613 -350.144 -651.385)"/><path d="M0 0v109.8c0 49 18.8 62.3 61.7 62.3h1736.6c43 0 61.6-13 61.6-62.2V-.2z" color="#000" overflow="visible" enable-background="accumulate"/></svg>