<svg xmlns="http://www.w3.org/2000/svg" width="393.8" height="86.1" preserveAspectRatio="none"><defs><filter id="b" color-interpolation-filters="sRGB"><feGaussianBlur stdDeviation="23.3"/></filter><filter id="c" color-interpolation-filters="sRGB"><feGaussianBlur stdDeviation=".6"/></filter><clipPath id="a"><path opacity=".5" fill="#78756e" stroke="#e0dacf" stroke-width="5" stroke-linecap="round" stroke-linejoin="round" d="M1494.7 1238.2h4792.8V544.7H1494.7z"/></clipPath></defs><path d="M3210 6754c-300-16-553-40-672-64-235-48-376-175-409-366-16-92-14-5095 2-5224 12-104 43-173 105-240 128-137 321-183 870-210 126-6 320-16 430-22 111-6 255-8 320-5 66 4 214 11 329 17 246 12 514 35 634 56 289 49 427 173 451 406 13 130 14 5144 1 5221-34 194-176 323-411 371-117 23-339 45-645 61-331 18-667 17-1005-1zm1910-3049V1340H2280v4730h2840V3705z" transform="matrix(.125 0 0 -.125 -265.637 158.61)" clip-path="url(#a)" filter="url(#b)"/><path d="M.2.2l.5 21C2.2 34 6 42.6 14 51 30 68 54 74 122.5 77c15.8 1 40 2 53.8 3 13.8.6 31.8 1 40 .5l41-2c30.8-1.6 64.3-4.5 79.3-7C373 65.4 390 50 393 20.6c.3-1.3.4-9.6.5-20.5H.2z" stroke="#222" stroke-width=".4" stroke-linejoin="round"/><path d="M-111 221c0 22-18 40.2-40.4 40.2-22.3 0-40.3-18-40.3-40.3 0-22.4 18-40.5 40.3-40.5 22.3 0 40.4 18 40.4 40.4z" transform="matrix(.472 0 0 .472 268.237 -69.636)" fill="none" stroke="#222" stroke-width="6.4" stroke-linejoin="round" filter="url(#c)"/></svg>