<svg xmlns="http://www.w3.org/2000/svg" width="394.2" height="85.4" preserveAspectRatio="none"><defs><filter id="b" color-interpolation-filters="sRGB"><feGaussianBlur stdDeviation="23.3"/></filter><clipPath id="a"><path opacity=".5" fill="#78756e" stroke="#e0dacf" stroke-width="10" stroke-linecap="round" stroke-linejoin="round" d="M2026.7 6149.3H5988v784H2026.8z"/></clipPath></defs><g transform="matrix(.125 0 0 -.125 -265.355 851.235)" clip-path="url(#a)" filter="url(#b)"><path d="M3210 6754c-300-16-553-40-672-64-235-48-376-175-409-366-16-92-14-5095 2-5224 12-104 43-173 105-240 128-137 321-183 870-210 126-6 320-16 430-22 111-6 255-8 320-5 66 4 214 11 329 17 246 12 514 35 634 56 289 49 427 173 451 406 13 130 14 5144 1 5221-34 194-176 323-411 371-117 23-339 45-645 61-331 18-667 17-1005-1zm1910-3049V1340H2280v4730h2840V3705z"/></g><path d="M199 5.2c-21 0-42 .6-63 1.8-37.6 2-69.2 5-84 8C22.4 21 5 36.8.7 60.7.6 62 .4 71 .2 85.2H394c-.2-13.4-.3-23.3-.5-24.4-4.2-24.2-22-40.3-51.3-46.3-14.7-3-42.4-5.7-80.7-7.7-20.7-1-41.5-1.6-62.5-1.6z" stroke="#222" stroke-width=".4" stroke-linejoin="round"/><path d="M67.8 51.8c0 5.2-4.2 9.4-9.3 9.4-5.2 0-9.4-4.2-9.4-9.4 0-5 4.3-9.3 9.5-9.3 5 0 9.3 4.2 9.3 9.3zM163.2 45.4H231v12H163z" fill="#2e2e2e"/></svg>