<svg xmlns="http://www.w3.org/2000/svg" xmlns:xlink="http://www.w3.org/1999/xlink" width="1880.021" height="1430.251" preserveAspectRatio="none"><defs><linearGradient id="q"><stop offset="0" stop-color="#fff" stop-opacity=".196"/><stop offset="1" stop-color="#fff" stop-opacity="0"/></linearGradient><linearGradient id="p"><stop offset="0" stop-color="gray"/><stop offset="1" stop-color="gray" stop-opacity="0"/></linearGradient><linearGradient id="n"><stop offset="0" stop-color="#d5d5d7" stop-opacity="0"/><stop offset=".01" stop-color="#d5d5d7"/><stop offset="1" stop-color="#e6e6e6"/></linearGradient><linearGradient id="m"><stop offset="0" stop-color="#a5a6aa"/><stop offset="1" stop-color="#e1e2e4"/></linearGradient><linearGradient id="c"><stop offset="0" stop-opacity=".392"/><stop offset="1" stop-opacity="0"/></linearGradient><linearGradient id="b"><stop offset="0" stop-color="#e6e6e8"/><stop offset="1" stop-color="#6e6e6e"/></linearGradient><linearGradient id="a"><stop offset="0" stop-color="#808185"/><stop offset=".341" stop-color="#c2c3c7"/><stop offset=".673" stop-color="#9c9da1"/><stop offset=".775" stop-color="#7a7b7f"/><stop offset=".913" stop-color="#a2a3a7"/><stop offset="1" stop-color="#b8b9bd"/></linearGradient><linearGradient id="d"><stop offset="0" stop-opacity=".392"/><stop offset="1" stop-opacity="0"/></linearGradient><linearGradient id="e"><stop offset="0" stop-opacity=".392"/><stop offset="1" stop-opacity="0"/></linearGradient><linearGradient id="f"><stop offset="0" stop-opacity=".392"/><stop offset="1" stop-opacity="0"/></linearGradient><linearGradient id="g"><stop offset="0" stop-opacity=".392"/><stop offset="1" stop-opacity="0"/></linearGradient><linearGradient id="h"><stop offset="0" stop-color="#e6e6e8"/><stop offset="1" stop-color="#6e6e6e"/></linearGradient><linearGradient id="l"><stop offset="0" stop-color="#e6e6e8"/><stop offset="1" stop-color="#6e6e6e"/></linearGradient><linearGradient id="i"><stop offset="0" stop-color="#e6e6e8"/><stop offset="1" stop-color="#6e6e6e"/></linearGradient><linearGradient x1="1280" y1="1573.699" x2="1280" y2="1573.717" id="j" xlink:href="#i" gradientUnits="userSpaceOnUse"/><linearGradient x1="1280" y1="1573.699" x2="1280" y2="1573.717" id="k" xlink:href="#l" gradientUnits="userSpaceOnUse" gradientTransform="translate(-2560)"/><linearGradient id="o"><stop offset="0" stop-color="#d5d5d7" stop-opacity="0"/><stop offset=".01" stop-color="#d5d5d7"/><stop offset="1" stop-color="#e6e6e6"/></linearGradient><clipPath id="r"><path d="M993.06 1560.32c-.825 10.633 5.53 17.077 48.195 16.322H1280v-22.795z" fill="url(#j)"/></clipPath><clipPath id="s"><path d="M-1566.94 1560.32c-.825 10.633 5.53 17.077 48.195 16.322H-1280v-22.795z" fill="url(#k)"/></clipPath><clipPath id="t"><path d="M1280 1269.28l-189.188 5.876c1.493 55.45-3.888 117.85-11.562 174.438-1.633 12.016-3.212 25.093-6 37.812-3.662 14.583-9.54 23.81-17.875 30.625-6.983 5.646-15.997 9.38-24.344 14.032-12.346 6.78-22.473 13.575-29.186 18.97-2.823 2.274-5.953 4.885-8.313 8.093-.337.53-.47 1.007-.467 1.438.012 1.743 2.47 2.768 4.625 3.562 6.953 2.263 19.962 3.03 35.593 3.156 8.43.065 18.63-.123 27.94-.06h437.56c9.31-.063 19.51.125 27.94.06 15.63-.126 28.64-.892 35.592-3.155 2.156-.793 4.614-1.819 4.625-3.563 0-.43-.13-.908-.468-1.437-2.362-3.208-5.49-5.82-8.314-8.094-6.713-5.393-16.84-12.187-29.187-18.968-8.348-4.652-17.362-8.386-24.345-14.03-8.336-6.815-14.213-16.043-17.875-30.626-2.788-12.72-4.367-25.796-6-37.812-7.674-56.59-13.055-118.99-11.563-174.438L1280 1269.28z" fill-opacity=".784"/></clipPath><filter x="-.341" y="-.301" width="1.682" height="1.602" color-interpolation-filters="sRGB" id="u"><feGaussianBlur stdDeviation="15.692"/></filter><clipPath id="v"><path d="M1175.338 1251.202l189.187 5.875c-1.493 55.45 3.89 117.848 11.563 174.438 1.632 12.015 3.212 25.093 6 37.812 3.662 14.583 9.54 23.81 17.875 30.625 6.983 5.645 15.996 9.38 24.343 14.03 12.348 6.782 22.475 13.576 29.188 18.97 2.822 2.274 5.952 4.886 8.312 8.094.338.528.472 1.007.47 1.437-.013 1.744-2.47 2.77-4.626 3.563-6.953 2.263-19.963 3.03-35.594 3.156-8.428.064-18.628-.124-27.937-.062H956.555c-9.31-.062-19.51.126-27.937.062-15.632-.127-28.642-.893-35.595-3.156-2.155-.794-4.613-1.82-4.625-3.563 0-.43.13-.91.47-1.437 2.36-3.208 5.49-5.82 8.31-8.094 6.714-5.394 16.84-12.188 29.19-18.97 8.346-4.65 17.36-8.385 24.343-14.03 8.335-6.815 14.213-16.042 17.875-30.625 2.787-12.72 4.367-25.797 6-37.812 7.673-56.59 13.055-118.99 11.562-174.438l189.188-5.875z" fill-opacity=".784"/></clipPath><filter x="-.341" y="-.301" width="1.682" height="1.602" color-interpolation-filters="sRGB" id="w"><feGaussianBlur stdDeviation="15.692"/></filter><clipPath id="x"><path d="M1280 1275.098l-148.864 5.875c1.174 55.45-3.06 117.848-9.098 174.437-1.285 12.016-2.528 25.093-4.72 37.813-2.883 14.582-7.508 23.81-14.067 30.625-5.494 5.645-12.586 9.38-19.154 14.03-9.716 6.782-17.684 13.576-22.966 18.97-2.22 2.274-4.684 4.886-6.54 8.094-.267.528-.372 1.006-.37 1.437.01 1.743 1.943 2.768 3.64 3.562 5.47 2.262 15.707 3.03 28.007 3.156 6.632.064 14.657-.125 21.983-.062h344.3c7.326-.062 15.35.126 21.983.062 12.3-.127 22.536-.894 28.008-3.156 1.697-.794 3.63-1.82 3.64-3.563 0-.432-.103-.91-.37-1.438-1.856-3.208-4.32-5.82-6.54-8.094-5.282-5.394-13.25-12.188-22.966-18.97-6.568-4.65-13.66-8.385-19.155-14.03-6.56-6.815-11.185-16.043-14.066-30.625-2.194-12.72-3.437-25.797-4.722-37.813-6.038-56.59-10.272-118.988-9.098-174.437L1280 1275.098z"/></clipPath><filter x="-.111" y="-.922" width="1.222" height="2.844" color-interpolation-filters="sRGB" id="y"><feGaussianBlur stdDeviation="18.423"/></filter><clipPath id="z"><path d="M1280 1269.28l-189.188 5.876c1.493 55.45-3.888 117.85-11.562 174.438-1.633 12.016-3.212 25.093-6 37.812-3.662 14.583-9.54 23.81-17.875 30.625-6.983 5.646-15.997 9.38-24.344 14.032-12.346 6.78-22.473 13.575-29.186 18.97-2.823 2.274-5.953 4.885-8.313 8.093-.337.53-.47 1.007-.467 1.438.012 1.743 2.47 2.768 4.625 3.562 6.953 2.263 19.962 3.03 35.593 3.156 8.43.065 18.63-.123 27.94-.06h437.56c9.31-.063 19.51.125 27.94.06 15.63-.126 28.64-.892 35.592-3.155 2.156-.793 4.614-1.819 4.625-3.563 0-.43-.13-.908-.468-1.437-2.362-3.208-5.49-5.82-8.314-8.094-6.713-5.393-16.84-12.187-29.187-18.968-8.348-4.652-17.362-8.386-24.345-14.03-8.336-6.815-14.213-16.043-17.875-30.626-2.788-12.72-4.367-25.796-6-37.812-7.674-56.59-13.055-118.99-11.563-174.438L1280 1269.28z"/></clipPath><filter x="-.355" y="-1.946" width="1.709" height="4.893" color-interpolation-filters="sRGB" id="A"><feGaussianBlur stdDeviation="74.755"/></filter></defs><path d="M653.08 1420.213c-.824 6.516 5.53 10.464 48.196 10H940.02v-13.967z"/><path clip-path="url(#r)" color="#000" overflow="visible" enable-background="accumulate" d="M993.06 1544.81h74.815v38.13H993.06z" transform="matrix(1 0 0 .613 -339.979 464.101)"/><path d="M1226.962 1420.577c.824 6.518-5.53 10.468-48.196 10.006H940.02v-13.974z"/><path transform="matrix(-1 0 0 .613 -339.979 464.101)" clip-path="url(#s)" color="#000" overflow="visible" enable-background="accumulate" d="M-1566.94 1544.81h74.815v38.13h-74.816z"/><path d="M940.02 1242.17l-189.187 3.602c1.493 33.99-3.888 72.24-11.562 106.93-1.632 7.366-3.212 15.382-6 23.18-3.66 8.938-9.54 14.595-17.874 18.772-6.983 3.46-15.997 5.75-24.344 8.6-12.347 4.158-22.474 8.323-29.187 11.63-2.823 1.393-5.953 2.994-8.313 4.96-.338.325-.47.618-.468.882.012 1.07 2.47 1.697 4.625 2.184 6.952 1.387 19.96 1.857 35.592 1.934 8.43.04 18.628-.076 27.938-.038h437.562c9.31-.038 19.51.078 27.938.038 15.63-.077 28.64-.547 35.594-1.934 2.155-.487 4.613-1.115 4.624-2.184 0-.264-.13-.557-.468-.88-2.36-1.968-5.49-3.57-8.313-4.963-6.713-3.306-16.84-7.47-29.187-11.628-8.347-2.85-17.36-5.14-24.344-8.6-8.335-4.178-14.213-9.835-17.875-18.774-2.787-7.796-4.366-15.812-6-23.178-7.673-34.69-13.054-72.94-11.562-106.93l-189.187-3.602z"/><path d="M993.06 1498.135c31.353-4.69 52.55 13.472 77.267 23.72-36.823 69.517-73.646 79.75-110.47 100.706l9.572-93.66z" clip-path="url(#t)" filter="url(#u)" transform="matrix(1 0 0 .613 -339.979 464.101)"/><path d="M888.397 1480.055c31.354-4.69 52.55 13.473 77.267 23.72-36.823 69.518-73.646 79.75-110.47 100.706l9.572-93.66z" transform="matrix(-1 0 0 .613 2115.359 475.183)" clip-path="url(#v)" filter="url(#w)"/><g transform="matrix(1 0 0 .613 -339.979 464.101)"><rect width="398.039" height="47.966" rx="199.02" ry="23.983" x="1080.98" y="1435.988" transform="matrix(1.271 0 0 1 -346.717 -5.816)" clip-path="url(#x)" color="#000" overflow="visible" filter="url(#y)" enable-background="accumulate"/></g><g transform="matrix(1 0 0 .613 -339.979 464.101)"><rect width="505.857" height="92.18" rx="252.929" ry="46.09" x="1027.071" y="1403.216" clip-path="url(#z)" color="#000" overflow="visible" filter="url(#A)" enable-background="accumulate"/></g><g stroke="#343434"><path d="M340 1137.5v109.906c0 49.048 18.952 62.312 62.33 62.312H2158.24c43.38 0 62.33-13.264 62.33-62.313V1137.5z" color="#000" stroke-width="20.4" overflow="visible" enable-background="accumulate" transform="matrix(.989 0 0 1 -326.064 -22.111)"/></g><g><path d="M62.334 0C18.967 0 .02 13.264.02 62.313v1055.532h1880V62.314c0-49.05-18.945-62.313-62.31-62.313H191.74z" color="#000" overflow="visible" enable-background="accumulate"/></g></svg>