<svg xmlns="http://www.w3.org/2000/svg" width="409.252" height="782.262" preserveAspectRatio="none"><defs><filter id="b" color-interpolation-filters="sRGB"><feGaussianBlur stdDeviation=".628"/></filter><filter id="a" color-interpolation-filters="sRGB"><feGaussianBlur stdDeviation="23.272"/></filter></defs><path d="M3210 6754c-300-16-553-40-672-64-235-48-376-175-409-366-16-92-14-5095 2-5224 12-104 43-173 105-240 128-137 321-183 870-210 126-6 320-16 430-22 111-6 255-8 320-5 66 4 214 11 329 17 246 12 514 35 634 56 289 49 427 173 451 406 13 130 14 5144 1 5221-34 194-176 323-411 371-117 23-339 45-645 61-331 18-667 17-1005-1zm1910-3049V1340H2280v4730h2840V3705z" transform="matrix(.125 0 0 -.125 -257.763 852.982)" filter="url(#a)"/><path d="M143.487 8.733c-37.5 2-69.125 5-84 8-29.375 6-47 21.875-51.125 45.75-2 11.5-1.75 636.875.25 653 1.5 13 5.375 21.625 13.125 30 16 17.125 40.125 22.875 108.75 26.25 15.75.75 40 2 53.75 2.75 13.875.75 31.875 1 40 .625 8.25-.5 26.75-1.375 41.125-2.125 30.75-1.5 64.25-4.375 79.25-7 36.125-6.125 53.375-21.625 56.375-50.75 1.625-16.25 1.75-643 .125-652.625-4.25-24.25-22-40.375-51.375-46.375-14.625-2.875-42.375-5.625-80.625-7.625-41.375-2.25-83.375-2.125-125.625.125zm238.75 381.125v295.625h-355V94.233h355v295.625z" stroke="#222" stroke-width=".425" stroke-linejoin="round"/><path d="M75.422 53.574c0 5.17-4.192 9.363-9.363 9.363-5.172 0-9.364-4.192-9.364-9.363 0-5.17 4.192-9.363 9.363-9.363 5.17 0 9.362 4.193 9.362 9.364zM170.793 47.168h67.666v12.145h-67.667z" opacity=".99" fill="#2e2e2e"/><path d="M-111.04 220.855c0 22.28-18.062 40.34-40.34 40.34-22.28 0-40.34-18.06-40.34-40.34 0-22.278 18.06-40.34 40.34-40.34 22.278 0 40.34 18.062 40.34 40.34z" transform="matrix(.472 0 0 .472 276.112 624.736)" opacity=".99" fill="none" stroke="#222" stroke-width="6.353" stroke-linejoin="round" filter="url(#b)"/></svg>