<svg xmlns="http://www.w3.org/2000/svg" width="764.262" height="409.252" preserveAspectRatio="none"><defs><filter id="b" color-interpolation-filters="sRGB"><feGaussianBlur stdDeviation=".628"/></filter><filter id="a" color-interpolation-filters="sRGB"><feGaussianBlur stdDeviation="23.272"/></filter></defs><path d="M3210 6610c-300-16-553-8-672-32-235-48-376-63-409-254-16-92-14-5095 2-5224 12-104 43-173 105-240 128-137 321-183 870-210 126-6 320-16 430-22 111-6 255-8 320-5 66 4 214 11 329 17 246 12 514 35 634 56 289 49 427 173 451 406 13 130 14 5144 1 5221-34 194-176 211-411 259-117 23-339 13-645 29-331 18-667 17-1005-1zm1910-2905V1148H2280v5178h2840z" transform="matrix(0 .125 .125 0 -70.721 -257.763)" filter="url(#a)"/><path d="M755.53 143.487c-2-37.5-1-69.125-4-84-6-29.375-7.876-47-31.75-51.125-11.5-2-636.876-1.75-653 .25-13 1.5-21.626 5.375-30 13.125-17.126 16-22.876 40.125-26.25 108.75-.75 15.75-2 40-2.75 53.75-.75 13.875-1 31.875-.626 40 .5 8.25 1.375 26.75 2.125 41.125 1.5 30.75 4.374 64.25 7 79.25 6.124 36.125 21.624 53.375 50.75 56.375 16.25 1.625 643 1.75 652.624.125 24.25-4.25 26.375-22 32.375-51.375 2.874-14.625 1.624-42.375 3.624-80.625 2.25-41.375 2.125-83.375-.125-125.625zm-363.126 238.75H72.78v-355h647.249v355z" stroke="#222" stroke-width=".425" stroke-linejoin="round"/><path transform="matrix(0 .472 -.472 0 145.525 276.112)" d="M-111.04 220.855c0 22.28-18.062 40.34-40.34 40.34-22.28 0-40.34-18.06-40.34-40.34 0-22.278 18.06-40.34 40.34-40.34 22.278 0 40.34 18.062 40.34 40.34z" opacity=".99" fill="none" stroke="#222" stroke-width="6.353" stroke-linejoin="round" filter="url(#b)"/></svg>